<svg width="24" height="24" viewBox="0 0 24 24" fill="none" xmlns="http://www.w3.org/2000/svg">
<path d="M10.19 5.5H6.09999C3.28999 5.5 0.98999 7.88 0.98999 10.78C0.98999 13.02 2.35999 14.93 4.26999 15.69L3.53999 18.7L7.79999 16.06H10.18C12.99 16.06 15.29 13.68 15.29 10.78C15.29 7.88 12.99 5.5 10.18 5.5H10.19Z" fill="#30718D" stroke="#30718D" stroke-width="0.5" stroke-miterlimit="10"/>
<path d="M18 11H19.38C21.37 11 23.01 12.58 23.01 14.52C23.01 16.01 22.04 17.29 20.68 17.8L21.2 19.8L18.18 18.04H16.49C15.63 18.04 14.84 17.75 14.22 17.26" stroke="#30718D" stroke-linecap="round" stroke-linejoin="round"/>
<path d="M13.1 9.35005C13.1 9.65005 12.85 9.90005 12.55 9.90005H3.74995C3.44995 9.90005 3.19995 9.65005 3.19995 9.35005C3.19995 9.05005 3.44995 8.80005 3.74995 8.80005H12.55C12.85 8.80005 13.1 9.05005 13.1 9.35005Z" fill="white"/>
<path d="M10.9 12.1C10.9 12.4 10.65 12.65 10.35 12.65H3.74995C3.44995 12.65 3.19995 12.4 3.19995 12.1C3.19995 11.8 3.44995 11.55 3.74995 11.55H10.35C10.65 11.55 10.9 11.8 10.9 12.1Z" fill="white"/>
<path d="M20.5199 14.3H16.6699C16.5199 14.3 16.3999 14.42 16.3999 14.57C16.3999 14.72 16.5199 14.85 16.6699 14.85H20.5199C20.6699 14.85 20.7899 14.73 20.7899 14.57C20.7899 14.41 20.6699 14.3 20.5199 14.3Z" fill="#30718D"/>
</svg>
