<svg width="24" height="24" viewBox="0 0 24 24" fill="none" xmlns="http://www.w3.org/2000/svg">
<mask id="mask0_302_1006" style="mask-type:alpha" maskUnits="userSpaceOnUse" x="0" y="0" width="24" height="24">
<rect width="24" height="24" fill="#D9D9D9"/>
</mask>
<g mask="url(#mask0_302_1006)">
<path d="M16.6429 19.5714L15.6429 18.5714L16.7679 17.4286H13.7857V16H16.7679L15.625 14.8571L16.6429 13.8571L19.5 16.7143L16.6429 19.5714ZM5.92857 17.4286C5.53571 17.4286 5.19952 17.2888 4.92 17.0093C4.64 16.7293 4.5 16.3929 4.5 16V7.42857C4.5 7.03571 4.64 6.69952 4.92 6.42C5.19952 6.14 5.53571 6 5.92857 6H17.3571C17.75 6 18.0864 6.14 18.3664 6.42C18.646 6.69952 18.7857 7.03571 18.7857 7.42857V13C18.4643 12.8095 18.1219 12.6667 17.7586 12.5714C17.3957 12.4762 17.0238 12.4286 16.6429 12.4286C15.4524 12.4286 14.4405 12.8452 13.6071 13.6786C12.7738 14.5119 12.3571 15.5238 12.3571 16.7143V17.4286H5.92857ZM11.6429 12.4286L17.3571 8.85714V7.42857L11.6429 11L5.92857 7.42857V8.85714L11.6429 12.4286Z" fill="#DB3725"/>
</g>
</svg>
