<svg width="14" height="14" viewBox="0 0 14 14" fill="none" xmlns="http://www.w3.org/2000/svg">
<path d="M7.0625 0.75C7.67439 0.75 8.27253 0.931445 8.7813 1.27139C9.29006 1.61134 9.68659 2.09451 9.92075 2.65982C10.1549 3.22513 10.2162 3.84718 10.0968 4.44731C9.97743 5.04744 9.68278 5.59869 9.25011 6.03136C8.81744 6.46403 8.26619 6.75868 7.66606 6.87805C7.06593 6.99743 6.44388 6.93616 5.87857 6.702C5.31326 6.46784 4.83009 6.07131 4.49014 5.56255C4.1502 5.05378 3.96875 4.45564 3.96875 3.84375C3.96875 3.02324 4.2947 2.23633 4.87489 1.65614C5.45508 1.07595 6.24199 0.75 7.0625 0.75V0.75ZM7.0625 8.48438C10.4811 8.48438 13.25 9.86883 13.25 11.5781V13.125H0.875V11.5781C0.875 9.86883 3.64391 8.48438 7.0625 8.48438Z" fill="#1D333D"/>
</svg>
