<svg width="182" height="58" viewBox="0 0 182 58" fill="none" xmlns="http://www.w3.org/2000/svg">
<rect width="182" height="58" rx="29" fill="#DB3725"/>
<path d="M64.8584 32.5358C67.2173 32.5358 69.1659 30.9467 69.5534 28.6396C69.5534 28.569 69.5762 28.4866 69.5876 28.4159C69.6103 28.2041 69.5989 28.2511 69.5192 28.2865C69.4736 28.31 69.371 28.3571 69.3027 28.3806C68.2543 28.7573 67.1375 28.9692 65.9638 28.9692H54.2948C54.0327 28.9692 53.6453 28.9927 53.3148 28.7573C53.2692 28.722 53.2464 28.7102 53.2806 28.7926C53.406 29.1575 54.3176 31.9237 54.3176 31.9237C54.5341 32.4888 55.0583 32.5476 55.4799 32.5476H64.8584V32.5358Z" fill="white"/>
<path d="M54.8646 33.5246C54.8987 33.6541 55.4571 35.1137 55.4571 35.1137C55.9016 36.3968 56.9271 37.3031 58.306 37.3031H63.3314C65.7814 37.3031 67.7984 35.561 68.0605 33.1126C68.0833 32.9713 68.0719 33.0184 67.9466 33.0655C66.8526 33.4893 65.6675 33.7129 64.4368 33.7129C64.4368 33.7129 56.3004 33.7247 55.9129 33.7129C55.5255 33.7012 55.2748 33.7012 54.9671 33.5246C54.9215 33.501 54.819 33.4187 54.876 33.5246" fill="white"/>
<path d="M32.5408 30.676C31.4468 29.7108 31.1619 28.6396 31.1391 27.5213C31.1277 26.7562 31.3557 26.097 31.7203 25.4849L40.8937 32.9714C42.4776 34.2073 44.13 33.8424 45.1784 32.8654C45.2353 32.8066 45.2353 32.8301 45.224 32.889C45.224 32.9361 44.9733 34.3486 44.8137 35.0313C44.3465 37.0207 41.6344 38.2213 39.8567 36.7735L32.5408 30.676V30.676Z" fill="white"/>
<path d="M47.5828 19.5288C46.9333 20.2115 46.4319 21.471 46.0786 22.4245C45.8165 23.1307 45.4975 23.4015 45.0189 23.4721C44.3921 23.5545 44.0388 23.425 43.5374 23.0248C43.036 22.6246 38.9337 19.2109 38.6032 18.952C38.512 19.0461 35.9253 21.3768 35.9253 21.3768L42.7853 26.9799C43.3209 27.3801 43.9135 27.8039 44.6314 27.6979C46.3635 27.4154 46.5686 25.8499 46.8649 24.5668C46.9447 24.2137 47.0359 23.8723 47.1156 23.5545C48.2552 19.8113 50.0898 18.0103 52.3348 16.9509C52.4601 16.892 52.3803 16.9626 52.3575 16.998C51.5143 17.9161 51.0926 19.4228 51.2408 21.3768C51.3775 23.1072 52.4943 26.4384 52.6652 26.8975C52.8134 27.2624 53.0527 27.7568 53.8503 27.7568H65.6219C68.0719 27.7568 70.1003 26.1441 70.3738 23.6957C70.3738 23.5898 70.3966 23.6016 70.2712 23.6604C69.1659 24.0724 67.9807 24.2137 66.7386 24.2137C66.7386 24.2137 56.6081 24.2255 54.6025 24.2137C52.9387 24.2019 52.6082 21.9772 52.5741 21.4475C52.3347 18.2457 53.8845 16.8332 53.8845 16.8332C54.6822 15.9268 55.5255 15.9621 55.742 15.9856C55.742 15.9856 55.8218 15.9856 55.7534 15.9503C55.5255 15.7855 54.7278 15.1852 54.3404 14.9027C53.9871 14.6084 53.5541 14.526 53.1438 14.7261L50.8533 15.7149C50.6596 15.7973 50.4317 15.6678 50.2494 15.5737C50.1126 15.4913 49.9303 15.4559 49.748 15.5501C49.748 15.5501 47.3663 16.8096 46.5458 17.1863C45.8393 17.5041 45.2468 17.2569 44.7112 16.7037C44.6314 16.6331 44.6542 16.5742 44.5972 16.7155C44.4947 16.9862 44.4491 17.2687 44.4491 17.563C44.4491 18.3163 44.7112 19.0461 45.2923 19.4228C45.8621 19.823 46.6712 19.776 47.5259 19.4699C47.6398 19.4346 47.6056 19.4699 47.5487 19.5288" fill="white"/>
<path d="M40.7798 10.2413C42.0674 9.04062 42.5916 6.92181 42.0447 5.13259C41.9877 4.93248 41.9877 4.99134 41.9307 5.09728C41.4749 5.87418 40.5746 6.83941 39.9023 7.42797L31.0252 15.6678C30.2389 16.4211 29.9996 17.3511 30.011 18.3045C30.011 18.3045 30.011 20.3409 30.011 20.6823C30.011 20.8471 30.068 20.8 30.0908 20.6823C30.2275 20.0584 30.7062 19.4581 31.5266 18.693C31.7773 18.434 40.7798 10.2413 40.7798 10.2413" fill="white"/>
<path d="M56.5169 43.5065C55.8446 41.2229 53.7022 39.9281 52.5513 39.0806C52.0841 38.751 50.1355 37.3973 49.3264 36.0789C47.6626 33.3951 48.5401 31.5588 49.2808 30.2993C49.4631 29.9579 49.4289 30.0756 49.4289 30.2404C49.4517 31.5941 50.1924 33.1361 52.255 34.4663C54.5227 35.9141 57.2348 38.2213 56.6537 43.789C56.6081 44.2128 56.5397 43.6595 56.4941 43.5065H56.5169Z" fill="white"/>
<path d="M45.8964 44.3424C45.338 45.1075 44.9733 46.2022 45.0189 47.2969C45.0417 48.015 45.3038 48.7919 45.771 49.6276C45.8052 49.6747 45.8622 49.7571 45.7482 49.6983C41.5661 47.0615 41.6117 40.9405 45.1101 37.315C45.1443 37.2679 45.1329 37.3385 45.1329 37.3739C44.8822 39.6104 46.8878 41.4938 47.9475 42.4354C48.7794 43.2006 50.2152 44.2835 51.3206 45.0957C52.5513 46.0257 53.4516 47.2616 53.6111 48.8625C54.1467 48.168 53.9416 47.2028 53.8618 46.8967C53.3376 44.978 50.9218 43.5655 50.2608 43.0005C49.2808 42.1529 48.0501 41.2112 47.0017 39.5162C45.9875 37.8918 46.1129 34.9961 47.0929 33.9131C47.184 33.819 47.1613 33.866 47.1613 33.9838C47.1385 35.6082 48.2096 36.5381 48.882 37.3032C49.7936 38.3273 53.0299 40.6227 53.839 41.376C55.799 43.2477 56.7449 46.4494 55.1267 49.7806C54.3746 51.3109 53.1211 53.1825 49.5429 53.6181C49.3834 53.6298 49.4062 53.5827 49.4973 53.5357C50.899 52.8529 51.0927 51.6876 51.0585 50.8165C51.0129 49.3687 50.1355 48.5329 48.7452 47.5441C47.0245 46.4259 46.261 45.2605 45.885 44.3424" fill="white"/>
<path d="M41.5433 31.9826C43.3324 33.2539 45.4747 32.0179 45.8394 29.7461C45.9647 29.1929 46.1356 28.2394 46.147 28.2041C46.147 28.1452 46.147 28.157 46.1129 28.1923C44.8024 29.2752 43.697 29.0634 42.3865 28.1334L35.082 22.1772C35.082 22.1772 32.6776 24.3196 32.4497 24.555L41.5547 31.9826H41.5433Z" fill="white"/>
<path d="M30.0111 26.0616C30.0111 26.25 30.0681 26.1911 30.1022 26.0263C30.3074 25.1082 31.1278 24.3077 31.8913 23.5073C31.8913 23.5073 31.9597 23.4249 33.0651 22.4008C34.159 21.3767 39.6517 16.4564 39.6517 16.4564C40.8368 15.3499 42.0333 13.3959 41.5319 11.124C41.5091 10.971 41.4863 11.0416 41.4521 11.1005C41.2242 11.4772 40.4949 12.1599 39.3782 13.1604C37.2358 15.1027 33.8172 18.1867 31.9483 19.9289C31.5381 20.3291 30.8543 20.9294 30.5809 21.3532C30.0111 22.2007 30.0111 22.907 30.0111 23.4602V26.0616Z" fill="white"/>
<path d="M86.168 16.3504V23.7309C86.168 24.908 85.8033 25.8379 85.074 26.5207C84.3447 27.2034 83.3761 27.5448 82.1682 27.5448C80.9602 27.5448 79.9688 27.2034 79.2509 26.5324C78.533 25.8615 78.1683 24.9198 78.1683 23.7191V16.3386H80.0144V23.7309C80.0144 24.4725 80.1967 25.0375 80.5614 25.426C80.926 25.8144 81.4616 26.0145 82.1682 26.0145C83.5926 26.0145 84.3105 25.2376 84.3105 23.6721V16.3386H86.1566L86.168 16.3504Z" fill="white"/>
<path d="M89.6435 19.1873L89.6891 20.1408C90.2817 19.411 91.0452 19.0343 92.0024 19.0343C93.6548 19.0343 94.498 20.0113 94.5322 21.9771V27.4036H92.7431V22.083C92.7431 21.5651 92.6292 21.1767 92.4126 20.9295C92.1961 20.6823 91.8429 20.5528 91.3415 20.5528C90.6236 20.5528 90.088 20.8941 89.7347 21.5651V27.4036H87.9456V19.1873H89.6321H89.6435Z" fill="white"/>
<path d="M96.3555 17.0566C96.3555 16.7741 96.4467 16.5387 96.6176 16.3504C96.7885 16.162 97.0392 16.0679 97.3583 16.0679C97.6774 16.0679 97.9281 16.162 98.1104 16.3504C98.2927 16.5387 98.3725 16.7741 98.3725 17.0566C98.3725 17.3392 98.2813 17.5628 98.1104 17.7511C97.9395 17.9395 97.6888 18.0337 97.3583 18.0337C97.0278 18.0337 96.7885 17.9395 96.6176 17.7511C96.4467 17.5628 96.3555 17.3392 96.3555 17.0566ZM98.2471 27.4035H96.4581V19.1872H98.2471V27.4035Z" fill="white"/>
<path d="M102.999 25.0611L104.686 19.1873H106.532L103.774 27.4036H102.224L99.4437 19.1873H101.29L102.999 25.0611V25.0611Z" fill="white"/>
<path d="M111.135 27.5566C110.007 27.5566 109.084 27.1917 108.389 26.4501C107.683 25.7203 107.329 24.7315 107.329 23.5073V23.2837C107.329 22.4597 107.478 21.7299 107.785 21.0825C108.093 20.4351 108.526 19.9407 109.073 19.5758C109.631 19.2226 110.247 19.0343 110.919 19.0343C112.002 19.0343 112.833 19.3874 113.426 20.1055C114.019 20.8235 114.315 21.8241 114.315 23.1307V23.8722H109.118C109.175 24.555 109.392 25.0847 109.779 25.4849C110.167 25.8851 110.645 26.0735 111.227 26.0735C112.047 26.0735 112.708 25.7321 113.221 25.0494L114.178 26.0028C113.859 26.4972 113.437 26.8739 112.902 27.1446C112.366 27.4154 111.774 27.5448 111.113 27.5448L111.135 27.5566ZM110.919 20.5175C110.429 20.5175 110.03 20.694 109.734 21.0472C109.438 21.4003 109.244 21.8947 109.153 22.5303H112.549V22.3891C112.514 21.777 112.355 21.3061 112.07 20.9883C111.785 20.6705 111.409 20.5175 110.908 20.5175H110.919Z" fill="white"/>
<path d="M119.876 20.8706C119.636 20.8353 119.397 20.8117 119.146 20.8117C118.326 20.8117 117.779 21.1413 117.494 21.7888V27.4036H115.705V19.1873H117.414L117.46 20.1055C117.893 19.3874 118.486 19.0343 119.249 19.0343C119.5 19.0343 119.716 19.0696 119.876 19.1402V20.8706V20.8706Z" fill="white"/>
<path d="M125.46 25.1671C125.46 24.8375 125.334 24.5903 125.072 24.4137C124.81 24.2371 124.377 24.0959 123.773 23.9546C123.169 23.8252 122.656 23.6604 122.257 23.4485C121.369 23.0012 120.924 22.3538 120.924 21.518C120.924 20.8117 121.209 20.2232 121.79 19.7406C122.371 19.2697 123.101 19.0225 123.99 19.0225C124.935 19.0225 125.71 19.2697 126.291 19.7523C126.873 20.235 127.169 20.8706 127.169 21.6475H125.38C125.38 21.2944 125.254 21.0001 124.992 20.7647C124.73 20.5292 124.4 20.4115 123.978 20.4115C123.591 20.4115 123.272 20.5057 123.021 20.694C122.77 20.8824 122.645 21.1296 122.645 21.4474C122.645 21.7299 122.759 21.9535 122.987 22.1066C123.215 22.2596 123.682 22.4244 124.388 22.5774C125.083 22.7422 125.642 22.9305 126.041 23.1424C126.44 23.3661 126.736 23.625 126.93 23.9311C127.123 24.2371 127.214 24.6138 127.214 25.0494C127.214 25.7909 126.918 26.3913 126.326 26.8503C125.733 27.3094 124.958 27.5331 124.001 27.5331C123.351 27.5331 122.77 27.4154 122.257 27.1682C121.745 26.921 121.357 26.5914 121.072 26.1676C120.787 25.7439 120.651 25.2848 120.651 24.7904H122.383C122.406 25.2259 122.565 25.5555 122.861 25.7909C123.158 26.0264 123.545 26.1441 124.024 26.1441C124.502 26.1441 124.856 26.0499 125.095 25.8616C125.334 25.6732 125.46 25.4378 125.46 25.1318V25.1671Z" fill="white"/>
<path d="M128.776 17.0566C128.776 16.7741 128.867 16.5387 129.038 16.3504C129.209 16.162 129.459 16.0679 129.778 16.0679C130.098 16.0679 130.348 16.162 130.531 16.3504C130.713 16.5387 130.793 16.7741 130.793 17.0566C130.793 17.3392 130.701 17.5628 130.531 17.7511C130.36 17.9395 130.109 18.0337 129.778 18.0337C129.448 18.0337 129.209 17.9395 129.038 17.7511C128.867 17.5628 128.776 17.3392 128.776 17.0566ZM130.667 27.4035H128.878V19.1872H130.667V27.4035Z" fill="white"/>
<path d="M134.849 17.198V19.1991H136.251V20.5645H134.849V25.1435C134.849 25.4613 134.906 25.685 135.032 25.8263C135.157 25.9675 135.362 26.0381 135.67 26.0381C135.875 26.0381 136.08 26.0146 136.297 25.9675V27.3918C135.886 27.5095 135.499 27.5684 135.123 27.5684C133.755 27.5684 133.06 26.7915 133.06 25.2259V20.5763H131.75V19.2109H133.06V17.2098H134.849V17.198Z" fill="white"/>
<path d="M140.399 24.755L142.017 19.1872H143.92L140.764 28.6395C140.274 30.0167 139.453 30.7112 138.291 30.7112C138.029 30.7112 137.744 30.6641 137.436 30.57V29.1339L137.778 29.1574C138.234 29.1574 138.564 29.075 138.792 28.8984C139.02 28.7337 139.203 28.4511 139.328 28.0509L139.59 27.3447L136.798 19.1755H138.724L140.41 24.7432L140.399 24.755Z" fill="white"/>
<path d="M77.8379 39.0923C77.8379 38.2919 77.9974 37.5621 78.3051 36.9147C78.6128 36.2673 79.0458 35.7729 79.6042 35.4315C80.1625 35.0901 80.8007 34.9136 81.53 34.9136C82.6012 34.9136 83.4786 35.2667 84.1396 35.9847C84.8119 36.7028 85.1652 37.6445 85.2221 38.8216V39.2571C85.2221 40.0693 85.074 40.7874 84.7777 41.423C84.4814 42.0587 84.0484 42.5531 83.49 42.9062C82.9316 43.2593 82.2821 43.4359 81.5414 43.4359C80.4246 43.4359 79.5244 43.0474 78.8521 42.2823C78.1797 41.5054 77.8379 40.4813 77.8379 39.1983V39.1041V39.0923ZM79.6269 39.2571C79.6269 40.1047 79.7979 40.7638 80.1283 41.2465C80.4588 41.7291 80.9374 41.9645 81.5414 41.9645C82.1454 41.9645 82.6126 41.7173 82.943 41.2347C83.2735 40.7521 83.4444 40.034 83.4444 39.1041C83.4444 38.2684 83.2735 37.6209 82.9316 37.1266C82.5898 36.6439 82.1226 36.3967 81.53 36.3967C80.9374 36.3967 80.4816 36.6322 80.1397 37.1148C79.7979 37.5974 79.6269 38.3037 79.6269 39.2571V39.2571Z" fill="white"/>
<path d="M87.3644 43.2828V36.432H86.1565V35.0666H87.3644V34.3132C87.3644 33.4068 87.6037 32.7006 88.0938 32.2062C88.5838 31.7118 89.2675 31.4646 90.1563 31.4646C90.464 31.4646 90.8059 31.5117 91.1591 31.6059L91.1136 33.0537C90.9198 33.0066 90.6919 32.9949 90.4298 32.9949C89.5752 32.9949 89.1535 33.4422 89.1535 34.3485V35.0783H90.7717V36.4438H89.1535V43.2946H87.3644V43.2828Z" fill="white"/>
<path d="M97.8483 39.1864V43.2828H95.9908V32.2297H100.082C101.278 32.2297 102.224 32.5475 102.931 33.1949C103.637 33.8423 103.99 34.6898 103.99 35.7492C103.99 36.8087 103.649 37.6797 102.953 38.28C102.27 38.8804 101.301 39.1864 100.059 39.1864H97.8483V39.1864ZM97.8483 37.6326H100.082C100.743 37.6326 101.244 37.4678 101.597 37.15C101.951 36.8322 102.122 36.3614 102.122 35.761C102.122 35.1607 101.951 34.6898 101.597 34.3367C101.244 33.9836 100.766 33.7952 100.139 33.7835H97.8483V37.6444V37.6326Z" fill="white"/>
<path d="M107.204 35.9611C107.785 35.2666 108.526 34.9135 109.415 34.9135C111.113 34.9135 111.967 35.914 111.99 37.9151V43.2828H110.201V37.9858C110.201 37.4207 110.087 37.0205 109.848 36.7851C109.608 36.5497 109.255 36.432 108.799 36.432C108.081 36.432 107.546 36.7616 107.193 37.4207V43.2828H105.404V31.6293H107.193V35.9729L107.204 35.9611Z" fill="white"/>
<path d="M113.46 39.0923C113.46 38.2919 113.62 37.5621 113.927 36.9147C114.235 36.2673 114.668 35.7729 115.226 35.4315C115.785 35.0901 116.423 34.9136 117.152 34.9136C118.223 34.9136 119.101 35.2667 119.762 35.9847C120.434 36.7028 120.787 37.6445 120.844 38.8216V39.2571C120.844 40.0693 120.696 40.7874 120.4 41.423C120.104 42.0587 119.671 42.5531 119.112 42.9062C118.554 43.2593 117.904 43.4359 117.164 43.4359C116.047 43.4359 115.147 43.0474 114.474 42.2823C113.802 41.5054 113.46 40.4813 113.46 39.1983V39.1041V39.0923ZM115.249 39.2571C115.249 40.1047 115.42 40.7638 115.751 41.2465C116.081 41.7291 116.56 41.9645 117.164 41.9645C117.768 41.9645 118.235 41.7173 118.565 41.2347C118.896 40.7521 119.067 40.034 119.067 39.1041C119.067 38.2684 118.896 37.6209 118.554 37.1266C118.212 36.6439 117.745 36.3967 117.152 36.3967C116.56 36.3967 116.104 36.6322 115.762 37.1148C115.42 37.5974 115.249 38.3037 115.249 39.2571V39.2571Z" fill="white"/>
<path d="M125.858 43.4359C124.73 43.4359 123.807 43.071 123.112 42.3294C122.406 41.5996 122.052 40.6108 122.052 39.3866V39.163C122.052 38.339 122.2 37.6092 122.508 36.9618C122.816 36.3143 123.249 35.82 123.796 35.455C124.354 35.1019 124.97 34.9136 125.642 34.9136C126.724 34.9136 127.556 35.2667 128.149 35.9847C128.741 36.7028 129.038 37.7033 129.038 39.0099V39.7515H123.841C123.898 40.4342 124.115 40.9639 124.502 41.3642C124.89 41.7644 125.368 41.9527 125.95 41.9527C126.77 41.9527 127.431 41.6114 127.944 40.9286L128.901 41.8821C128.582 42.3765 128.16 42.7532 127.625 43.0239C127.089 43.2946 126.497 43.4241 125.836 43.4241L125.858 43.4359ZM125.642 36.3967C125.152 36.3967 124.753 36.5733 124.457 36.9264C124.16 37.2796 123.967 37.774 123.876 38.4096H127.271V38.2684C127.237 37.6563 127.078 37.1854 126.793 36.8676C126.508 36.5498 126.132 36.3967 125.63 36.3967H125.642Z" fill="white"/>
<path d="M132.092 35.0666L132.137 36.0201C132.73 35.2903 133.493 34.9136 134.451 34.9136C136.103 34.9136 136.946 35.8906 136.98 37.8564V43.2829H135.191V37.9623C135.191 37.4444 135.077 37.0559 134.861 36.8087C134.644 36.5615 134.291 36.4321 133.79 36.4321C133.072 36.4321 132.536 36.7734 132.183 37.4444V43.2829H130.394V35.0666H132.08H132.092Z" fill="white"/>
<path d="M138.804 32.936C138.804 32.6535 138.895 32.4181 139.066 32.2297C139.237 32.0414 139.487 31.9472 139.806 31.9472C140.126 31.9472 140.376 32.0414 140.559 32.2297C140.741 32.4181 140.821 32.6535 140.821 32.936C140.821 33.2185 140.73 33.4421 140.559 33.6305C140.388 33.8188 140.137 33.913 139.806 33.913C139.476 33.913 139.237 33.8188 139.066 33.6305C138.895 33.4421 138.804 33.2185 138.804 32.936ZM140.695 43.2828H138.906V35.0666H140.695V43.2828Z" fill="white"/>
<path d="M145.504 37.774L147.02 35.0666H149.003L146.575 39.1159L149.094 43.2829H147.122L145.538 40.4695L143.954 43.2829H141.972L144.49 39.1159L142.063 35.0666H144.034L145.516 37.774H145.504Z" fill="white"/>
<path d="M151.897 35.2549C150.803 35.2549 149.857 36.1024 149.857 37.3031C149.857 38.5037 150.803 39.363 151.897 39.363C152.991 39.363 153.925 38.5155 153.925 37.3031C153.925 36.0906 152.98 35.2549 151.897 35.2549ZM151.897 39.0452C150.974 39.0452 150.233 38.2683 150.233 37.3031C150.233 36.3378 150.974 35.5727 151.897 35.5727C152.82 35.5727 153.549 36.3496 153.549 37.3031C153.549 38.2565 152.82 39.0452 151.897 39.0452Z" fill="white"/>
<path d="M152.285 37.303V37.2795C152.558 37.2207 152.74 37.0088 152.74 36.7263C152.74 36.2672 152.353 36.1495 151.966 36.1495H151.099V38.4449H151.476V37.4443H151.954C152.091 37.4443 152.193 37.5267 152.25 37.6326C152.319 37.7504 152.319 37.8916 152.33 38.0564V38.4449H152.706V38.0564C152.706 37.9505 152.695 37.821 152.683 37.7857C152.672 37.6562 152.615 37.3619 152.296 37.3148L152.285 37.303ZM151.943 37.1383H151.464V36.4438H151.943C152.25 36.4438 152.342 36.5968 152.342 36.7851C152.342 36.9735 152.239 37.1383 151.943 37.1383Z" fill="white"/>
</svg>
