<svg width="135" height="58" viewBox="0 0 135 58" fill="none" xmlns="http://www.w3.org/2000/svg">
<rect width="135" height="58" rx="29" fill="#DB3725"/>
<path d="M44.8411 31.2972C46.7257 31.2972 48.2825 30.0682 48.5921 28.2837C48.5921 28.2291 48.6103 28.1654 48.6194 28.1107C48.6376 27.9469 48.6285 27.9833 48.5648 28.0106C48.5284 28.0288 48.4464 28.0652 48.3918 28.0834C47.5542 28.3748 46.662 28.5386 45.7243 28.5386H36.4015C36.1921 28.5386 35.8826 28.5569 35.6185 28.3748C35.5821 28.3475 35.5639 28.3384 35.5912 28.4021C35.6914 28.6843 36.4197 30.8238 36.4197 30.8238C36.5927 31.2608 37.0115 31.3063 37.3483 31.3063H44.8411V31.2972Z" fill="white"/>
<path d="M36.8567 32.062C36.884 32.1621 37.3301 33.291 37.3301 33.291C37.6852 34.2834 38.5046 34.9844 39.6062 34.9844H43.6212C45.5786 34.9844 47.19 33.637 47.3994 31.7433C47.4176 31.6341 47.4085 31.6705 47.3084 31.7069C46.4344 32.0346 45.4875 32.2076 44.5043 32.2076C44.5043 32.2076 38.0038 32.2167 37.6943 32.2076C37.3847 32.1985 37.1845 32.1985 36.9386 32.062C36.9022 32.0437 36.8203 31.98 36.8658 32.062" fill="white"/>
<path d="M19.0214 29.8587C18.1474 29.1122 17.9198 28.2837 17.9016 27.4188C17.8925 26.827 18.0746 26.3172 18.3659 25.8438L25.6948 31.6341C26.9603 32.59 28.2804 32.3078 29.118 31.5521C29.1636 31.5066 29.1636 31.5248 29.1544 31.5703C29.1544 31.6067 28.9542 32.6993 28.8267 33.2273C28.4534 34.7659 26.2866 35.6946 24.8663 34.5747L19.0214 29.8587Z" fill="white"/>
<path d="M31.0391 21.2371C30.5201 21.7651 30.1195 22.7393 29.8373 23.4767C29.6279 24.023 29.373 24.2324 28.9906 24.287C28.4899 24.3507 28.2076 24.2506 27.807 23.941C27.4065 23.6315 24.1289 20.9913 23.8649 20.791C23.7921 20.8638 21.7254 22.6664 21.7254 22.6664L27.2062 27.0001C27.6341 27.3096 28.1075 27.6374 28.6811 27.5554C30.0649 27.3369 30.2288 26.1261 30.4655 25.1337C30.5292 24.8606 30.6021 24.5965 30.6658 24.3507C31.5762 21.4556 33.042 20.0626 34.8355 19.2432C34.9357 19.1977 34.8719 19.2523 34.8537 19.2797C34.18 19.9898 33.8432 21.1551 33.9615 22.6664C34.0708 24.0048 34.963 26.5813 35.0996 26.9363C35.2179 27.2186 35.4091 27.601 36.0464 27.601H45.4511C47.4085 27.601 49.0291 26.3537 49.2476 24.46C49.2476 24.378 49.2658 24.3871 49.1656 24.4327C48.2825 24.7513 47.3357 24.8606 46.3433 24.8606C46.3433 24.8606 38.2496 24.8697 36.6473 24.8606C35.3181 24.8515 35.054 23.1308 35.0267 22.7211C34.8355 20.2447 36.0737 19.1522 36.0737 19.1522C36.711 18.4512 37.3847 18.4785 37.5577 18.4967C37.5577 18.4967 37.6214 18.4967 37.5668 18.4694C37.3847 18.3419 36.7474 17.8776 36.4379 17.6591C36.1556 17.4315 35.8097 17.3678 35.4819 17.5225L33.652 18.2873C33.4972 18.351 33.3151 18.2509 33.1695 18.178C33.0602 18.1143 32.9145 18.087 32.7689 18.1598C32.7689 18.1598 30.8661 19.134 30.2106 19.4253C29.6461 19.6711 29.1727 19.48 28.7448 19.0521C28.6811 18.9974 28.6993 18.9519 28.6537 19.0612C28.5718 19.2706 28.5354 19.4891 28.5354 19.7167C28.5354 20.2993 28.7448 20.8638 29.2091 21.1551C29.6643 21.4647 30.3107 21.4283 30.9935 21.1916C31.0846 21.1642 31.0573 21.1916 31.0117 21.2371" fill="white"/>
<path d="M25.6038 14.0538C26.6326 13.1251 27.0514 11.4864 26.6144 10.1025C26.5689 9.94775 26.5689 9.99327 26.5234 10.0752C26.1592 10.6761 25.44 11.4226 24.9028 11.8779L17.8106 18.2508C17.1824 18.8335 16.9912 19.5527 17.0003 20.2902C17.0003 20.2902 17.0003 21.8652 17.0003 22.1292C17.0003 22.2567 17.0458 22.2203 17.064 22.1292C17.1733 21.6467 17.5557 21.1824 18.2112 20.5906C18.4115 20.3903 25.6038 14.0538 25.6038 14.0538Z" fill="white"/>
<path d="M38.1768 39.7824C37.6397 38.0162 35.9281 37.0147 35.0085 36.3592C34.6352 36.1043 33.0784 35.0573 32.432 34.0376C31.1028 31.9618 31.8038 30.5416 32.3956 29.5674C32.5413 29.3034 32.514 29.3944 32.514 29.5219C32.5322 30.5689 33.1239 31.7616 34.7718 32.7903C36.5836 33.9102 38.7504 35.6946 38.2861 40.0009C38.2496 40.3287 38.195 39.9008 38.1586 39.7824H38.1768Z" fill="white"/>
<path d="M29.6917 40.4288C29.2456 41.0206 28.9542 41.8673 28.9906 42.714C29.0089 43.2694 29.2183 43.8703 29.5915 44.5167C29.6188 44.5531 29.6644 44.6168 29.5733 44.5713C26.2321 42.5319 26.2685 37.7977 29.0635 34.9936C29.0908 34.9572 29.0817 35.0118 29.0817 35.0391C28.8814 36.7689 30.4837 38.2256 31.3304 38.954C31.9951 39.5457 33.1422 40.3833 34.0253 41.0115C35.0086 41.7308 35.7278 42.6867 35.8553 43.9249C36.2832 43.3877 36.1193 42.6412 36.0555 42.4045C35.6368 40.9205 33.7067 39.828 33.1786 39.391C32.3956 38.7355 31.4124 38.0071 30.5748 36.6961C29.7645 35.4397 29.8647 33.2001 30.6476 32.3625C30.7205 32.2896 30.7022 32.3261 30.7022 32.4171C30.684 33.6735 31.5398 34.3927 32.077 34.9845C32.8053 35.7766 35.3909 37.5519 36.0373 38.1346C37.6033 39.5822 38.3589 42.0585 37.0661 44.635C36.4652 45.8186 35.4638 47.2661 32.605 47.603C32.4776 47.6121 32.4958 47.5757 32.5686 47.5393C33.6884 47.0112 33.8432 46.1099 33.8159 45.4362C33.7795 44.3164 33.0785 43.67 31.9677 42.9052C30.593 42.0403 29.983 41.139 29.6826 40.4288" fill="white"/>
<path d="M26.2138 30.8693C27.6432 31.8526 29.3548 30.8966 29.6461 29.1395C29.7463 28.7116 29.8828 27.9742 29.8919 27.9469C29.8919 27.9013 29.8919 27.9105 29.8646 27.9378C28.8176 28.7754 27.9345 28.6115 26.8875 27.8922L21.0517 23.2855C21.0517 23.2855 19.1307 24.9425 18.9486 25.1246L26.2229 30.8693H26.2138Z" fill="white"/>
<path d="M17.0004 26.2899C17.0004 26.4355 17.0459 26.39 17.0732 26.2626C17.2371 25.5524 17.8926 24.9333 18.5026 24.3142C18.5026 24.3142 18.5572 24.2505 19.4403 23.4584C20.3143 22.6664 24.7026 18.8608 24.7026 18.8608C25.6494 18.005 26.6053 16.4937 26.2048 14.7366C26.1865 14.6182 26.1683 14.6728 26.141 14.7184C25.9589 15.0097 25.3763 15.5377 24.4841 16.3116C22.7724 17.8138 20.0412 20.1991 18.5481 21.5466C18.2203 21.8561 17.6741 22.3204 17.4556 22.6482C17.0004 23.3037 17.0004 23.8499 17.0004 24.2778V26.2899Z" fill="white"/>
<path d="M61.8661 18.7788V24.4872C61.8661 25.3976 61.5748 26.1168 60.9921 26.6449C60.4095 27.1729 59.6356 27.437 58.6705 27.437C57.7055 27.437 56.9134 27.1729 56.3399 26.654C55.7663 26.1351 55.4749 25.4067 55.4749 24.4781V18.7697H56.9498V24.4872C56.9498 25.0608 57.0955 25.4978 57.3868 25.7982C57.6782 26.0986 58.1061 26.2534 58.6705 26.2534C59.8086 26.2534 60.3821 25.6525 60.3821 24.4417V18.7697H61.857L61.8661 18.7788Z" fill="white"/>
<path d="M64.6429 20.973L64.6793 21.7104C65.1527 21.146 65.7627 20.8546 66.5275 20.8546C67.8476 20.8546 68.5213 21.6103 68.5486 23.1307V27.3278H67.1192V23.2126C67.1192 22.8121 67.0282 22.5116 66.8552 22.3204C66.6822 22.1292 66.4 22.0291 65.9994 22.0291C65.4258 22.0291 64.9979 22.2931 64.7157 22.8121V27.3278H63.2863V20.973H64.6338H64.6429Z" fill="white"/>
<path d="M70.0053 19.3251C70.0053 19.1066 70.0781 18.9245 70.2147 18.7788C70.3512 18.6331 70.5515 18.5603 70.8065 18.5603C71.0614 18.5603 71.2617 18.6331 71.4073 18.7788C71.553 18.9245 71.6167 19.1066 71.6167 19.3251C71.6167 19.5436 71.5439 19.7165 71.4073 19.8622C71.2708 20.0079 71.0705 20.0807 70.8065 20.0807C70.5424 20.0807 70.3512 20.0079 70.2147 19.8622C70.0781 19.7165 70.0053 19.5436 70.0053 19.3251ZM71.5166 27.3277H70.0872V20.9729H71.5166V27.3277Z" fill="white"/>
<path d="M75.3131 25.516L76.6605 20.973H78.1354L75.9322 27.3278H74.694L72.4726 20.973H73.9475L75.3131 25.516Z" fill="white"/>
<path d="M81.8135 27.4461C80.9122 27.4461 80.1748 27.1639 79.6194 26.5903C79.0549 26.0259 78.7727 25.2611 78.7727 24.3143V24.1413C78.7727 23.504 78.8911 22.9395 79.1369 22.4388C79.3827 21.9381 79.7287 21.5557 80.1657 21.2734C80.6118 21.0003 81.1034 20.8546 81.6405 20.8546C82.5055 20.8546 83.1701 21.1278 83.6435 21.6831C84.1169 22.2385 84.3536 23.0124 84.3536 24.0229V24.5965H80.2021C80.2476 25.1245 80.4206 25.5342 80.7301 25.8438C81.0397 26.1533 81.422 26.299 81.8864 26.299C82.5419 26.299 83.0699 26.035 83.4796 25.5069L84.2444 26.2444C83.9894 26.6267 83.6526 26.9181 83.2247 27.1275C82.7968 27.3369 82.3234 27.437 81.7953 27.437L81.8135 27.4461ZM81.6405 22.0018C81.2491 22.0018 80.9304 22.1383 80.6937 22.4115C80.457 22.6846 80.3022 23.067 80.2294 23.5586H82.9425V23.4494C82.9151 22.9759 82.7877 22.6118 82.5601 22.366C82.3325 22.1201 82.032 22.0018 81.6314 22.0018H81.6405Z" fill="white"/>
<path d="M88.7965 22.2749C88.6053 22.2476 88.4141 22.2294 88.2138 22.2294C87.5583 22.2294 87.1213 22.4843 86.8937 22.985V27.3278H85.4643V20.973H86.83L86.8664 21.6831C87.2123 21.1278 87.6858 20.8546 88.2957 20.8546C88.496 20.8546 88.669 20.882 88.7965 20.9366V22.2749Z" fill="white"/>
<path d="M93.2576 25.5979C93.2576 25.343 93.1574 25.1518 92.948 25.0153C92.7386 24.8787 92.3926 24.7695 91.9101 24.6602C91.4276 24.5601 91.0179 24.4326 90.6993 24.2687C89.9891 23.9228 89.6341 23.422 89.6341 22.7756C89.6341 22.2294 89.8617 21.7742 90.326 21.4009C90.7903 21.0367 91.373 20.8455 92.0831 20.8455C92.8388 20.8455 93.4578 21.0367 93.9222 21.41C94.3865 21.7833 94.6232 22.2749 94.6232 22.8758H93.1938C93.1938 22.6026 93.0937 22.375 92.8843 22.1929C92.6749 22.0109 92.4109 21.9198 92.074 21.9198C91.7645 21.9198 91.5095 21.9927 91.3092 22.1383C91.109 22.284 91.0088 22.4752 91.0088 22.721C91.0088 22.9395 91.0998 23.1125 91.2819 23.2308C91.464 23.3492 91.8373 23.4766 92.4018 23.595C92.9571 23.7225 93.4032 23.8681 93.7219 24.032C94.0405 24.205 94.2772 24.4053 94.432 24.642C94.5868 24.8787 94.6596 25.17 94.6596 25.5069C94.6596 26.0805 94.4229 26.5448 93.9495 26.8998C93.4761 27.2549 92.857 27.4279 92.0922 27.4279C91.5733 27.4279 91.1089 27.3369 90.6993 27.1457C90.2896 26.9545 89.98 26.6996 89.7524 26.3718C89.5248 26.044 89.4156 25.689 89.4156 25.3066H90.7994C90.8176 25.6435 90.9451 25.8984 91.1818 26.0805C91.4185 26.2626 91.728 26.3536 92.1104 26.3536C92.4928 26.3536 92.775 26.2808 92.9662 26.1351C93.1574 25.9894 93.2576 25.8073 93.2576 25.5706V25.5979Z" fill="white"/>
<path d="M95.9069 19.3251C95.9069 19.1066 95.9797 18.9245 96.1163 18.7788C96.2529 18.6331 96.4532 18.5603 96.7081 18.5603C96.963 18.5603 97.1633 18.6331 97.3089 18.7788C97.4546 18.9245 97.5183 19.1066 97.5183 19.3251C97.5183 19.5436 97.4455 19.7165 97.3089 19.8622C97.1724 20.0079 96.9721 20.0807 96.7081 20.0807C96.444 20.0807 96.2529 20.0079 96.1163 19.8622C95.9797 19.7165 95.9069 19.5436 95.9069 19.3251ZM97.4182 27.3277H95.9888V20.9729H97.4182V27.3277Z" fill="white"/>
<path d="M100.759 19.4344V20.9821H101.879V22.0382H100.759V25.5798C100.759 25.8256 100.805 25.9986 100.905 26.1078C101.005 26.2171 101.169 26.2717 101.415 26.2717C101.579 26.2717 101.743 26.2535 101.916 26.2171V27.3187C101.588 27.4097 101.278 27.4553 100.978 27.4553C99.8855 27.4553 99.3301 26.8544 99.3301 25.6435V22.0473H98.2831V20.9912H99.3301V19.4435H100.759V19.4344Z" fill="white"/>
<path d="M105.193 25.2793L106.486 20.973H108.007L105.485 28.2837C105.093 29.3489 104.438 29.886 103.509 29.886C103.3 29.886 103.072 29.8496 102.826 29.7768V28.6661L103.099 28.6843C103.463 28.6843 103.728 28.6205 103.91 28.484C104.092 28.3565 104.237 28.138 104.337 27.8285L104.547 27.2822L102.316 20.9639H103.855L105.202 25.2702L105.193 25.2793Z" fill="white"/>
<path d="M55.2109 36.3683C55.2109 35.7492 55.3383 35.1848 55.5842 34.684C55.83 34.1833 56.1759 33.8009 56.622 33.5369C57.0681 33.2729 57.578 33.1363 58.1607 33.1363C59.0165 33.1363 59.7175 33.4094 60.2455 33.9648C60.7827 34.5201 61.0649 35.2485 61.1104 36.1589V36.4958C61.1104 37.124 60.9921 37.6793 60.7554 38.1709C60.5187 38.6626 60.1727 39.045 59.7266 39.3181C59.2805 39.5912 58.7615 39.7278 58.1698 39.7278C57.2775 39.7278 56.5583 39.4273 56.0212 38.8356C55.484 38.2347 55.2109 37.4426 55.2109 36.4502V36.3774V36.3683ZM56.6402 36.4958C56.6402 37.1513 56.7768 37.6611 57.0408 38.0344C57.3049 38.4077 57.6872 38.5897 58.1698 38.5897C58.6523 38.5897 59.0256 38.3986 59.2896 38.0253C59.5536 37.652 59.6902 37.0966 59.6902 36.3774C59.6902 35.731 59.5536 35.2303 59.2805 34.8479C59.0073 34.4746 58.6341 34.2834 58.1607 34.2834C57.6872 34.2834 57.3231 34.4655 57.0499 34.8388C56.7768 35.2121 56.6402 35.7583 56.6402 36.4958Z" fill="white"/>
<path d="M62.822 39.6094V34.3107H61.857V33.2547H62.822V32.672C62.822 31.971 63.0132 31.4247 63.4047 31.0423C63.7962 30.6599 64.3424 30.4688 65.0526 30.4688C65.2984 30.4688 65.5715 30.5052 65.8537 30.578L65.8173 31.6978C65.6625 31.6614 65.4805 31.6523 65.2711 31.6523C64.5882 31.6523 64.2514 31.9983 64.2514 32.6993V33.2638H65.5442V34.3198H64.2514V39.6185H62.822V39.6094Z" fill="white"/>
<path d="M71.1979 36.4411V39.6094H69.7139V31.0605H72.9824C73.9383 31.0605 74.694 31.3063 75.2584 31.807C75.8229 32.3077 76.1051 32.9632 76.1051 33.7826C76.1051 34.602 75.832 35.2757 75.2766 35.74C74.7304 36.2044 73.9565 36.4411 72.9641 36.4411H71.1979ZM71.1979 35.2393H72.9824C73.5104 35.2393 73.911 35.1119 74.1932 34.866C74.4755 34.6202 74.612 34.256 74.612 33.7917C74.612 33.3274 74.4755 32.9632 74.1932 32.6901C73.911 32.417 73.5286 32.2713 73.0279 32.2622H71.1979V35.2484V35.2393Z" fill="white"/>
<path d="M78.6725 33.9465C79.1369 33.4093 79.7286 33.1362 80.4388 33.1362C81.7953 33.1362 82.4781 33.9101 82.4963 35.4578V39.6093H81.067V35.5124C81.067 35.0754 80.9759 34.7659 80.7847 34.5838C80.5935 34.4017 80.3113 34.3107 79.9471 34.3107C79.3736 34.3107 78.9457 34.5656 78.6634 35.0754V39.6093H77.2341V30.5961H78.6634V33.9556L78.6725 33.9465Z" fill="white"/>
<path d="M83.6708 36.3683C83.6708 35.7492 83.7983 35.1848 84.0441 34.684C84.2899 34.1833 84.6359 33.8009 85.082 33.5369C85.5281 33.2729 86.0379 33.1363 86.6206 33.1363C87.4764 33.1363 88.1774 33.4094 88.7055 33.9648C89.2426 34.5201 89.5248 35.2485 89.5704 36.1589V36.4958C89.5704 37.124 89.452 37.6793 89.2153 38.1709C88.9786 38.6626 88.6326 39.045 88.1865 39.3181C87.7404 39.5912 87.2215 39.7278 86.6297 39.7278C85.7375 39.7278 85.0182 39.4273 84.4811 38.8356C83.9439 38.2347 83.6708 37.4426 83.6708 36.4502V36.3774V36.3683ZM85.1002 36.4958C85.1002 37.1513 85.2367 37.6611 85.5008 38.0344C85.7648 38.4077 86.1472 38.5897 86.6297 38.5897C87.1122 38.5897 87.4855 38.3986 87.7495 38.0253C88.0135 37.652 88.1501 37.0966 88.1501 36.3774C88.1501 35.731 88.0135 35.2303 87.7404 34.8479C87.4673 34.4746 87.094 34.2834 86.6206 34.2834C86.1472 34.2834 85.783 34.4655 85.5099 34.8388C85.2367 35.2121 85.1002 35.7583 85.1002 36.4958Z" fill="white"/>
<path d="M93.5762 39.7278C92.6749 39.7278 91.9374 39.4455 91.3821 38.872C90.8176 38.3075 90.5354 37.5428 90.5354 36.5959V36.4229C90.5354 35.7856 90.6537 35.2212 90.8995 34.7204C91.1454 34.2197 91.4913 33.8373 91.9283 33.5551C92.3744 33.282 92.8661 33.1363 93.4032 33.1363C94.2681 33.1363 94.9327 33.4094 95.4062 33.9648C95.8796 34.5201 96.1163 35.294 96.1163 36.3046V36.8781H91.9647C92.0103 37.4062 92.1832 37.8159 92.4928 38.1254C92.8023 38.435 93.1847 38.5806 93.649 38.5806C94.3045 38.5806 94.8326 38.3166 95.2423 37.7886L96.007 38.526C95.7521 38.9084 95.4153 39.1997 94.9874 39.4091C94.5595 39.6185 94.086 39.7187 93.558 39.7187L93.5762 39.7278ZM93.4032 34.2834C93.0117 34.2834 92.6931 34.42 92.4564 34.6931C92.2197 34.9662 92.0649 35.3486 91.9921 35.8403H94.7051V35.731C94.6778 35.2576 94.5504 34.8934 94.3227 34.6476C94.0951 34.4018 93.7947 34.2834 93.3941 34.2834H93.4032Z" fill="white"/>
<path d="M98.5562 33.2546L98.5927 33.9921C99.0661 33.4276 99.6761 33.1363 100.441 33.1363C101.761 33.1363 102.435 33.8919 102.462 35.4124V39.6094H101.033V35.4943C101.033 35.0937 100.942 34.7933 100.769 34.6021C100.596 34.4109 100.313 34.3107 99.9128 34.3107C99.3392 34.3107 98.9113 34.5748 98.6291 35.0937V39.6094H97.1997V33.2546H98.5471H98.5562Z" fill="white"/>
<path d="M103.919 31.6067C103.919 31.3882 103.992 31.2062 104.128 31.0605C104.265 30.9148 104.465 30.842 104.72 30.842C104.975 30.842 105.175 30.9148 105.321 31.0605C105.466 31.2062 105.53 31.3882 105.53 31.6067C105.53 31.8252 105.457 31.9982 105.321 32.1439C105.184 32.2896 104.984 32.3624 104.72 32.3624C104.456 32.3624 104.265 32.2896 104.128 32.1439C103.992 31.9982 103.919 31.8252 103.919 31.6067ZM105.43 39.6094H104.001V33.2546H105.43V39.6094Z" fill="white"/>
<path d="M109.272 35.3486L110.483 33.2547H112.067L110.128 36.3865L112.14 39.6094H110.565L109.299 37.4335L108.034 39.6094H106.45L108.462 36.3865L106.522 33.2547H108.098L109.281 35.3486H109.272Z" fill="white"/>
<path d="M114.379 33.4003C113.505 33.4003 112.75 34.0558 112.75 34.9844C112.75 35.913 113.505 36.5777 114.379 36.5777C115.253 36.5777 116 35.9221 116 34.9844C116 34.0467 115.244 33.4003 114.379 33.4003ZM114.379 36.3318C113.642 36.3318 113.05 35.731 113.05 34.9844C113.05 34.2379 113.642 33.6461 114.379 33.6461C115.117 33.6461 115.7 34.247 115.7 34.9844C115.7 35.7219 115.117 36.3318 114.379 36.3318Z" fill="white"/>
<path d="M114.689 34.9844V34.9662C114.908 34.9207 115.053 34.7568 115.053 34.5383C115.053 34.1832 114.744 34.0922 114.434 34.0922H113.742V35.8675H114.043V35.0937H114.425C114.534 35.0937 114.616 35.1574 114.662 35.2393C114.716 35.3304 114.716 35.4396 114.725 35.5671V35.8675H115.026V35.5671C115.026 35.4851 115.017 35.385 115.008 35.3577C114.999 35.2575 114.953 35.0299 114.698 34.9935L114.689 34.9844ZM114.416 34.857H114.034V34.3198H114.416C114.662 34.3198 114.735 34.4382 114.735 34.5838C114.735 34.7295 114.653 34.857 114.416 34.857Z" fill="white"/>
</svg>
