<svg version="1.2" overflow="visible" preserveAspectRatio="none" viewBox="0 0 23.8799991607666 24" xmlns="http://www.w3.org/2000/svg" width="21" height="22"><g transform="translate(1, 1)"><defs><style>.cls-1_1546757849283{fill:#de3518;}</style></defs><g data-name="Layer 2" id="Layer_2_1546757849283"><g data-name="Layer 1" id="Layer_1-2_1546757849283"><path d="M20.55,2,19.24.63a2.15,2.15,0,0,0-3,0L12.87,4a2.1,2.1,0,0,0-.63,1.52A2.13,2.13,0,0,0,12.86,7l1,1,.1.09a.51.51,0,0,1,.08.23,1.56,1.56,0,0,1-.46,1.05c-.15.19-1.42,1.5-2.55,2.65-.58.56-1.48,1.41-1.66,1.56-.68.55-1.12.54-1.28.38L8,13.87l-1-1a2.09,2.09,0,0,0-1.51-.63h0a2.18,2.18,0,0,0-1.52.63L.63,16.2a2.15,2.15,0,0,0,0,3.05L2,20.54A4.87,4.87,0,0,0,5.53,22h0c3.85,0,8.18-3.92,9.87-5.6,1.52-1.52,6.48-6.81,6.48-11.09A4.52,4.52,0,0,0,20.55,2ZM14,15c-1.17,1.18-5.26,5-8.45,5a2.9,2.9,0,0,1-2.15-.89L2,17.82a.13.13,0,0,1,0-.2l3.32-3.33a.15.15,0,0,1,.11,0h0a.17.17,0,0,1,.11,0l1,1A2.42,2.42,0,0,0,8.11,16a3.36,3.36,0,0,0,2.52-.89c.33-.26,1.56-1.45,1.81-1.69l0,0c.56-.57,2.43-2.49,2.69-2.81A3.36,3.36,0,0,0,16,8.11a2.36,2.36,0,0,0-.77-1.52l-1-1a.14.14,0,0,1,0-.1.19.19,0,0,1,0-.11L17.61,2a.14.14,0,0,1,.2,0l1.31,1.36a2.58,2.58,0,0,1,.76,1.92C19.88,8.1,16.7,12.27,14,15Z" class="cls-1_1546757849283" vector-effect="non-scaling-stroke" style="fill: rgb(221, 56, 38);"/></g></g></g></svg>