<svg width="27" height="29" viewBox="0 0 27 29" fill="none" xmlns="http://www.w3.org/2000/svg">
<path d="M8.10801 28.9996C7.45196 28.9996 6.82279 28.7246 6.35889 28.2351C5.89499 27.7457 5.63438 27.0818 5.63438 26.3896C5.63438 25.6974 5.89499 25.0335 6.35889 24.5441C6.82279 24.0546 7.45196 23.7796 8.10801 23.7796C8.42892 23.7723 8.74798 23.8327 9.04649 23.9572C9.34501 24.0817 9.61696 24.2678 9.84642 24.5046C10.2084 24.8652 10.4585 25.3328 10.564 25.8461C10.6694 26.3594 10.6251 26.8944 10.4371 27.3806C10.249 27.8669 9.92589 28.2818 9.5102 28.5707C9.09452 28.8597 8.60571 29.0092 8.10801 28.9996ZM21.8504 28.9996C21.1944 28.9996 20.5652 28.7246 20.1013 28.2351C19.6374 27.7457 19.3768 27.0818 19.3768 26.3896C19.3768 25.6974 19.6374 25.0335 20.1013 24.5441C20.5652 24.0546 21.1944 23.7796 21.8504 23.7796C22.1713 23.7723 22.4904 23.8327 22.7889 23.9572C23.0874 24.0817 23.3594 24.2678 23.5888 24.5046C23.9508 24.8652 24.2009 25.3328 24.3063 25.8461C24.4118 26.3594 24.3675 26.8944 24.1795 27.3806C23.9914 27.8669 23.6683 28.2818 23.2526 28.5707C22.8369 28.8597 22.3481 29.0092 21.8504 28.9996ZM6.3215 5.07492L10.1007 13.3398H19.9952L24.2897 5.07492H6.3215ZM5.29082 2.89996H25.5265C26.2617 2.89996 26.7221 3.1392 26.9007 3.62495C26.9885 3.87492 27.0187 4.14333 26.9888 4.40804C26.959 4.67274 26.8699 4.92617 26.729 5.14742L22.0909 13.956C21.8488 14.3839 21.5204 14.7502 21.1289 15.029C20.7368 15.3209 20.2689 15.4779 19.789 15.4785H9.37918L7.45525 19.2485H24.324V21.4234H7.76445C7.36696 21.4571 6.968 21.3813 6.60664 21.2034C6.24528 21.0254 5.93393 20.7515 5.70309 20.4084C5.49289 20.0689 5.38096 19.6721 5.38096 19.2666C5.38096 18.861 5.49289 18.4643 5.70309 18.1247L7.90188 13.8473L2.67977 2.17497H0V0H4.01965L5.29082 2.89996Z" fill="#1D333D"/>
</svg>
