<svg width="60" height="25" viewBox="0 0 60 25" fill="none" xmlns="http://www.w3.org/2000/svg">
<path d="M6.94873 14.7368V16H2.30859V14.7368H6.94873ZM2.75293 6.75781V16H1.15967V6.75781H2.75293ZM7.73584 12.6421V12.4961C7.73584 12.001 7.80778 11.5418 7.95166 11.1187C8.09554 10.6912 8.3029 10.321 8.57373 10.0078C8.8488 9.69043 9.18311 9.44499 9.57666 9.27148C9.97445 9.09375 10.423 9.00488 10.9224 9.00488C11.4259 9.00488 11.8745 9.09375 12.2681 9.27148C12.6659 9.44499 13.0023 9.69043 13.2773 10.0078C13.5524 10.321 13.7619 10.6912 13.9058 11.1187C14.0496 11.5418 14.1216 12.001 14.1216 12.4961V12.6421C14.1216 13.1372 14.0496 13.5964 13.9058 14.0195C13.7619 14.4427 13.5524 14.813 13.2773 15.1304C13.0023 15.4435 12.668 15.689 12.2744 15.8667C11.8809 16.0402 11.4344 16.127 10.9351 16.127C10.4315 16.127 9.98079 16.0402 9.58301 15.8667C9.18945 15.689 8.85514 15.4435 8.58008 15.1304C8.30501 14.813 8.09554 14.4427 7.95166 14.0195C7.80778 13.5964 7.73584 13.1372 7.73584 12.6421ZM9.26562 12.4961V12.6421C9.26562 12.951 9.29736 13.243 9.36084 13.5181C9.42432 13.7931 9.52376 14.0343 9.65918 14.2417C9.7946 14.4491 9.9681 14.612 10.1797 14.7305C10.3913 14.849 10.6431 14.9082 10.9351 14.9082C11.2186 14.9082 11.464 14.849 11.6714 14.7305C11.883 14.612 12.0565 14.4491 12.1919 14.2417C12.3273 14.0343 12.4268 13.7931 12.4902 13.5181C12.5579 13.243 12.5918 12.951 12.5918 12.6421V12.4961C12.5918 12.1914 12.5579 11.9036 12.4902 11.6328C12.4268 11.3577 12.3252 11.1144 12.1855 10.9028C12.0501 10.6912 11.8766 10.5262 11.665 10.4077C11.4577 10.285 11.2101 10.2236 10.9224 10.2236C10.6346 10.2236 10.3849 10.285 10.1733 10.4077C9.96598 10.5262 9.7946 10.6912 9.65918 10.9028C9.52376 11.1144 9.42432 11.3577 9.36084 11.6328C9.29736 11.9036 9.26562 12.1914 9.26562 12.4961ZM19.8027 9.13184H21.1929V15.8096C21.1929 16.4274 21.0617 16.9521 20.7993 17.3838C20.5369 17.8154 20.1709 18.1434 19.7012 18.3677C19.2314 18.5962 18.6877 18.7104 18.0698 18.7104C17.8075 18.7104 17.5155 18.6724 17.1938 18.5962C16.8765 18.52 16.5675 18.3973 16.2671 18.228C15.9709 18.063 15.7233 17.8451 15.5244 17.5742L16.2417 16.6729C16.4871 16.9648 16.758 17.1785 17.0542 17.314C17.3504 17.4494 17.6615 17.5171 17.9873 17.5171C18.3385 17.5171 18.6369 17.4515 18.8823 17.3203C19.132 17.1934 19.3245 17.005 19.46 16.7554C19.5954 16.5057 19.6631 16.201 19.6631 15.8413V10.687L19.8027 9.13184ZM15.1372 12.6421V12.5088C15.1372 11.9883 15.2007 11.5143 15.3276 11.0869C15.4546 10.6553 15.6366 10.285 15.8735 9.97607C16.1105 9.66292 16.3983 9.42383 16.7368 9.25879C17.0754 9.08952 17.4583 9.00488 17.8857 9.00488C18.3301 9.00488 18.7088 9.08529 19.022 9.24609C19.3394 9.4069 19.6038 9.63753 19.8154 9.93799C20.027 10.2342 20.1921 10.5897 20.3105 11.0044C20.4333 11.4149 20.5243 11.8719 20.5835 12.3755V12.8008C20.5285 13.2917 20.4354 13.7402 20.3042 14.1465C20.173 14.5527 19.9995 14.904 19.7837 15.2002C19.5679 15.4964 19.3013 15.7249 18.9839 15.8857C18.6707 16.0465 18.3005 16.127 17.873 16.127C17.4541 16.127 17.0754 16.0402 16.7368 15.8667C16.4025 15.6932 16.1147 15.4499 15.8735 15.1367C15.6366 14.8236 15.4546 14.4554 15.3276 14.0322C15.2007 13.6048 15.1372 13.1414 15.1372 12.6421ZM16.667 12.5088V12.6421C16.667 12.9552 16.6966 13.2472 16.7559 13.5181C16.8193 13.7889 16.9146 14.028 17.0415 14.2354C17.1727 14.4385 17.3377 14.5993 17.5366 14.7178C17.7397 14.832 17.9788 14.8892 18.2539 14.8892C18.6136 14.8892 18.9077 14.813 19.1362 14.6606C19.369 14.5083 19.5467 14.3031 19.6694 14.0449C19.7964 13.7826 19.8853 13.4906 19.936 13.1689V12.02C19.9106 11.7703 19.8577 11.5376 19.7773 11.3218C19.7012 11.106 19.5975 10.9176 19.4663 10.7568C19.3351 10.5918 19.1701 10.4648 18.9712 10.376C18.7723 10.2829 18.5374 10.2363 18.2666 10.2363C17.9915 10.2363 17.7524 10.2956 17.5493 10.4141C17.3462 10.5326 17.179 10.6955 17.0479 10.9028C16.9209 11.1102 16.8257 11.3514 16.7622 11.6265C16.6987 11.9015 16.667 12.1956 16.667 12.5088ZM27.6548 9.13184V16H26.1187V9.13184H27.6548ZM26.0171 7.3291C26.0171 7.09635 26.0933 6.90381 26.2456 6.75146C26.4022 6.59489 26.618 6.5166 26.8931 6.5166C27.1639 6.5166 27.3776 6.59489 27.5342 6.75146C27.6908 6.90381 27.769 7.09635 27.769 7.3291C27.769 7.55762 27.6908 7.74805 27.5342 7.90039C27.3776 8.05273 27.1639 8.12891 26.8931 8.12891C26.618 8.12891 26.4022 8.05273 26.2456 7.90039C26.0933 7.74805 26.0171 7.55762 26.0171 7.3291ZM30.8477 10.5981V16H29.3179V9.13184H30.7588L30.8477 10.5981ZM30.5747 12.312L30.0796 12.3057C30.0838 11.819 30.1515 11.3726 30.2827 10.9663C30.4181 10.5601 30.6043 10.2109 30.8413 9.91895C31.0825 9.62695 31.3703 9.40267 31.7046 9.24609C32.0389 9.08529 32.4113 9.00488 32.8218 9.00488C33.1519 9.00488 33.4502 9.05143 33.7168 9.14453C33.9876 9.2334 34.2183 9.37939 34.4087 9.58252C34.6034 9.78564 34.7515 10.0501 34.853 10.376C34.9546 10.6976 35.0054 11.0933 35.0054 11.563V16H33.4692V11.5566C33.4692 11.2266 33.4206 10.9663 33.3232 10.7759C33.2301 10.5812 33.0926 10.4437 32.9106 10.3633C32.7329 10.2786 32.5107 10.2363 32.2441 10.2363C31.9818 10.2363 31.7469 10.2913 31.5396 10.4014C31.3322 10.5114 31.1566 10.6616 31.0127 10.8521C30.873 11.0425 30.7651 11.2625 30.689 11.5122C30.6128 11.7619 30.5747 12.0285 30.5747 12.312Z" fill="#001823"/>
<path d="M43.9068 24.9996C43.348 24.9996 42.812 24.7626 42.4168 24.3406C42.0217 23.9187 41.7997 23.3464 41.7997 22.7497C41.7997 22.1529 42.0217 21.5806 42.4168 21.1587C42.812 20.7367 43.348 20.4997 43.9068 20.4997C44.1802 20.4934 44.452 20.5454 44.7063 20.6528C44.9606 20.7601 45.1922 20.9205 45.3877 21.1247C45.696 21.4355 45.9091 21.8386 45.9989 22.2811C46.0887 22.7236 46.051 23.1848 45.8908 23.604C45.7306 24.0232 45.4554 24.3809 45.1013 24.63C44.7472 24.879 44.3308 25.0079 43.9068 24.9996ZM55.6133 24.9996C55.0545 24.9996 54.5185 24.7626 54.1233 24.3406C53.7281 23.9187 53.5061 23.3464 53.5061 22.7497C53.5061 22.1529 53.7281 21.5806 54.1233 21.1587C54.5185 20.7367 55.0545 20.4997 55.6133 20.4997C55.8867 20.4934 56.1585 20.5454 56.4128 20.6528C56.667 20.7601 56.8987 20.9205 57.0942 21.1247C57.4025 21.4355 57.6156 21.8386 57.7054 22.2811C57.7952 22.7236 57.7575 23.1848 57.5973 23.604C57.4371 24.0232 57.1619 24.3809 56.8078 24.63C56.4537 24.879 56.0373 25.0079 55.6133 24.9996ZM42.385 4.37493L45.6043 11.4998H54.0329L57.6912 4.37493H42.385ZM41.507 2.49996H58.7448C59.3711 2.49996 59.7633 2.70621 59.9154 3.12495C59.9902 3.34045 60.0159 3.57184 59.9905 3.80003C59.965 4.02823 59.8892 4.2467 59.7691 4.43743L55.8182 12.0311C55.6119 12.3999 55.3322 12.7157 54.9987 12.9561C54.6647 13.2077 54.2661 13.343 53.8573 13.3435H44.9897L43.3508 16.5935H57.7205V18.4685H43.6142C43.2756 18.4975 42.9357 18.4322 42.6279 18.2788C42.3201 18.1254 42.0548 17.8892 41.8582 17.5935C41.6791 17.3008 41.5838 16.9587 41.5838 16.6091C41.5838 16.2595 41.6791 15.9175 41.8582 15.6248L43.7312 11.9373L39.2828 1.87497H37V0H40.4241L41.507 2.49996Z" fill="#1D333D"/>
</svg>
