<svg width="17" height="17" viewBox="0 0 17 17" fill="none" xmlns="http://www.w3.org/2000/svg">
<path d="M4.03111 7.56931C5.25293 9.97052 7.22141 11.9305 9.62263 13.1608L11.4893 11.2942C11.7184 11.0651 12.0578 10.9887 12.3547 11.0905C13.305 11.4045 14.3317 11.5742 15.3838 11.5742C15.8505 11.5742 16.2323 11.956 16.2323 12.4226V15.3839C16.2323 15.8505 15.8505 16.2323 15.3838 16.2323C7.41656 16.2323 0.959595 9.77537 0.959595 1.80809C0.959595 1.34143 1.34141 0.95961 1.80808 0.95961H4.77778C5.24444 0.95961 5.62626 1.34143 5.62626 1.80809C5.62626 2.8687 5.79596 3.88688 6.1099 4.83719C6.20323 5.13416 6.13535 5.46507 5.89778 5.70264L4.03111 7.56931Z" fill="#1D333D"/>
</svg>
