<svg width="24" height="24" viewBox="0 0 24 24" fill="none" xmlns="http://www.w3.org/2000/svg">
<mask id="mask0_302_1010" style="mask-type:alpha" maskUnits="userSpaceOnUse" x="0" y="0" width="24" height="24">
<rect width="24" height="24" fill="#D9D9D9"/>
</mask>
<g mask="url(#mask0_302_1010)">
<path d="M7.71429 21.8571C7.24286 21.8571 6.83943 21.6894 6.504 21.354C6.168 21.018 6 20.6143 6 20.1429V4.71429C6 4.24286 6.168 3.83914 6.504 3.50314C6.83943 3.16771 7.24286 3 7.71429 3H16.2857C16.7571 3 17.1609 3.16771 17.4969 3.50314C17.8323 3.83914 18 4.24286 18 4.71429V20.1429C18 20.6143 17.8323 21.018 17.4969 21.354C17.1609 21.6894 16.7571 21.8571 16.2857 21.8571H7.71429ZM12 19.7143C12.2429 19.7143 12.4466 19.632 12.6111 19.4674C12.7751 19.3034 12.8571 19.1 12.8571 18.8571C12.8571 18.6143 12.7751 18.4109 12.6111 18.2469C12.4466 18.0823 12.2429 18 12 18C11.7571 18 11.5537 18.0823 11.3897 18.2469C11.2251 18.4109 11.1429 18.6143 11.1429 18.8571C11.1429 19.1 11.2251 19.3034 11.3897 19.4674C11.5537 19.632 11.7571 19.7143 12 19.7143ZM7.71429 15.8571H16.2857V7.28571H7.71429V15.8571Z" fill="#DB3725"/>
</g>
</svg>
